<?xml version="1.0" encoding="UTF-8" standalone="no"?>
<svg width="180px" height="25px" viewBox="0 0 180 25" version="1.1" xmlns="http://www.w3.org/2000/svg" xmlns:xlink="http://www.w3.org/1999/xlink">
    <!-- Generator: Sketch 3.6.1 (26313) - http://www.bohemiancoding.com/sketch -->
    <title>Page 1</title>
    <desc>Created with Sketch.</desc>
    <defs>
        <path id="path-1" d="M13.466791,0.107399411 L0.0842590775,0.107399411 L0.0842590775,24.2001256 L13.466791,24.2001256 L13.466791,0.107399411 L13.466791,0.107399411 Z"></path>
    </defs>
    <g id="Page-1" stroke="none" stroke-width="1" fill="none" fill-rule="evenodd">
        <g>
            <path d="M16.3178037,2.20103435 L10.1986869,10.4269814 L4.07939352,2.20103435 L-1.76643768e-05,2.20103435 L-1.76643768e-05,22.5982669 L4.07939352,22.5982669 L4.07939352,8.44768793 L10.1986869,16.6734583 L16.3178037,8.44768793 L16.3178037,22.5982669 L20.3972149,22.5982669 L20.3972149,2.20103435 L16.3178037,2.20103435 Z" id="Fill-1" fill="#15A18E"></path>
            <g id="Group-27" transform="translate(21.903827, 0.069244)">
                <path d="M4.1739156,12.330318 C4.1739156,13.1805044 4.33536801,13.9750481 4.65844946,14.7143023 C4.98100098,15.4537331 5.41890088,16.1000726 5.97144259,16.6520844 C6.52345437,17.2046261 7.16979392,17.6423494 7.90922473,17.9650775 C8.64865554,18.2883356 9.44284593,18.4496114 10.2930324,18.4496114 C11.1257311,18.4496114 11.9160353,18.2883356 12.6642983,17.9650775 C13.4120314,17.6423494 14.0622571,17.2046261 14.6147988,16.6520844 C15.1669872,16.1000726 15.6047105,15.4537331 15.9279686,14.7143023 C16.2505201,13.9750481 16.4123258,13.1805044 16.4123258,12.330318 C16.4123258,11.4977959 16.2505201,10.707315 15.9279686,9.95922866 C15.6047105,9.21131894 15.1669872,8.56144652 14.6147988,8.00872816 C14.0622571,7.45653974 13.4120314,7.01881649 12.6642983,6.69573503 C11.9160353,6.37300687 11.1257311,6.21120118 10.2930324,6.21120118 C9.44284593,6.21120118 8.64865554,6.37300687 7.90922473,6.69573503 C7.16979392,7.01881649 6.52345437,7.45653974 5.97144259,8.00872816 C5.41890088,8.56144652 4.98100098,9.21131894 4.65844946,9.95922866 C4.33536801,10.707315 4.1739156,11.4977959 4.1739156,12.330318 M0.0945044161,12.330318 C0.0945044161,10.9198175 0.362119725,9.5937527 0.897526987,8.35300687 C1.43311089,7.11243768 2.15964671,6.03279097 3.07766438,5.11494995 C3.9955054,4.19693229 5.07462218,3.47021982 6.31554465,2.93481256 C7.55611384,2.3994053 8.88200196,2.13178999 10.2930324,2.13178999 C11.7037095,2.13178999 13.0295976,2.3994053 14.2705201,2.93481256 C15.5110893,3.47021982 16.590736,4.19693229 17.5087537,5.11494995 C18.4265947,6.03279097 19.1531305,7.11243768 19.6885378,8.35300687 C20.223945,9.5937527 20.491737,10.9198175 20.491737,12.330318 C20.491737,13.7413484 20.223945,15.0674132 19.6885378,16.3079823 C19.1531305,17.5487282 18.4265947,18.6280216 17.5087537,19.5458626 C16.590736,20.4637036 15.5110893,21.1904161 14.2705201,21.7258234 C13.0295976,22.2612306 11.7037095,22.5290226 10.2930324,22.5290226 C8.88200196,22.5290226 7.55611384,22.2612306 6.31554465,21.7258234 C5.07462218,21.1904161 3.9955054,20.4637036 3.07766438,19.5458626 C2.15964671,18.6280216 1.43311089,17.5487282 0.897526987,16.3079823 C0.362119725,15.0674132 0.0945044161,13.7413484 0.0945044161,12.330318" id="Fill-2" fill="#15A18E"></path>
                <path d="M22.0212071,2.13182532 L25.9732581,2.13182532 L36.2993229,15.7724338 L36.2993229,2.13182532 L40.3787341,2.13182532 L40.3787341,22.5290579 L36.2738862,22.5290579 L26.1006183,9.04142296 L26.1006183,22.5290579 L22.0212071,22.5290579 L22.0212071,2.13182532 Z" id="Fill-4" fill="#15A18E"></path>
                <path d="M51.3420412,16.9197174 C51.3420412,16.308 51.1291855,15.8107478 50.7047105,15.428314 C50.2795289,15.0458803 49.7441217,14.7016016 49.0983121,14.3956546 C48.4521492,14.0895309 47.7552895,13.7925927 47.0075564,13.5032502 C46.2594701,13.2144377 45.5626104,12.8489617 44.9168008,12.406999 C44.2706379,11.9650363 43.7352306,11.4169107 43.310579,10.7624455 C42.8853974,10.108157 42.6732483,9.27086555 42.6732483,8.25092444 C42.6732483,7.41840236 42.834524,6.63640039 43.1576055,5.90527184 C43.4803337,5.17467321 43.9138175,4.52833366 44.4578803,3.9674897 C45.0017664,3.40664573 45.6435132,2.96485967 46.3829441,2.64177821 C47.1223749,2.31905005 47.908263,2.14876546 48.741315,2.13180765 L49.0218253,2.13180765 C49.8206084,2.16607655 50.5771737,2.35296565 51.2909912,2.69265162 C52.0048086,3.03286752 52.6295976,3.47465358 53.1650049,4.0183631 C53.7004122,4.5627792 54.1250638,5.19587046 54.439843,5.91799019 C54.7540922,6.64063984 54.9114818,7.40974681 54.9114818,8.22548773 L50.8575074,8.22548773 L50.8575074,8.17443768 C50.8403729,7.91936408 50.7810206,7.66446712 50.6790972,7.40974681 C50.5771737,7.15449657 50.4408047,6.92521295 50.2712267,6.7211894 C50.1011187,6.51734249 49.9053974,6.34758783 49.6847694,6.21121884 C49.4636114,6.07555643 49.2258489,5.99059078 48.9707753,5.95614524 L48.7923651,5.95614524 C48.2315211,5.95614524 47.75105,6.11371148 47.3518351,6.42796075 C46.9522669,6.74273994 46.7526595,7.17993327 46.7526595,7.74095388 C46.7526595,8.18326987 46.9649853,8.56570363 47.3899902,8.8884318 C47.8148184,9.2113366 48.3502257,9.52187635 48.996212,9.81899117 C49.6421982,10.1164593 50.3388813,10.4353013 51.0871443,10.7751639 C51.8347007,11.1153798 52.5315604,11.5315525 53.1778999,12.0245653 C53.8235329,12.5177547 54.3589401,13.1169303 54.7841217,13.8220922 C55.2087733,14.5274308 55.4214524,15.390159 55.4214524,16.4097468 C55.4214524,17.2429755 55.2598234,18.0290402 54.9369185,18.7682944 C54.6140137,19.5077252 54.1761138,20.1538881 53.6241021,20.7060765 C53.0713837,21.2584416 52.4255741,21.7004043 51.6863199,22.031788 C50.9467125,22.3633484 50.1602944,22.5290402 49.3277723,22.5290402 L48.4864181,22.5290402 C47.653366,22.5290402 46.8713641,22.3633484 46.1407655,22.031788 C45.4096369,21.7004043 44.7678901,21.2584416 44.2157017,20.7060765 C43.66316,20.1538881 43.2252601,19.5119647 42.9025319,18.7810128 C42.5796271,18.0504141 42.4181747,17.2684122 42.4181747,16.4355368 L46.4975859,16.4355368 L46.4975859,16.4864102 C46.514367,17.030473 46.7145044,17.5277252 47.0967615,17.9778135 C47.4791953,18.4284318 47.9338763,18.670787 48.4608047,18.704526 L49.4551325,18.704526 C49.9481452,18.670787 50.377213,18.5093346 50.7428656,18.2201688 C51.1081649,17.9313562 51.3077723,17.5233091 51.3420412,16.9963808 L51.3420412,16.9197174 Z" id="Fill-6" fill="#15A18E"></path>
                <path d="M55.8724063,2.13182532 L70.1505221,2.13182532 L70.1505221,6.21123651 L65.0001197,6.21123651 L65.0001197,22.5290579 L60.9207085,22.5290579 L60.9207085,6.21123651 L55.8724063,6.21123651 L55.8724063,2.13182532 Z" id="Fill-8" fill="#15A18E"></path>
                <path d="M102.887558,22.6925947 L107.29853,22.6925947 L107.324143,22.7180314 L102.887558,22.6925947 Z M96.6154681,10.4541845 L100.694879,10.4541845 C101.2559,10.4541845 101.735841,10.254577 102.135409,9.85500883 C102.534624,9.45579392 102.734762,8.97549951 102.734762,8.4144789 C102.734762,7.85345829 102.534624,7.37351717 102.135409,6.97394897 C101.735841,6.57473405 101.2559,6.37477331 100.694879,6.37477331 L96.6154681,6.37477331 L96.6154681,10.4541845 Z M92.5360569,22.6925947 L92.5360569,2.29536212 L100.694879,2.29536212 C101.527755,2.29536212 102.317882,2.45716781 103.065969,2.77989598 C103.813878,3.10280079 104.464104,3.54070069 105.016469,4.09288911 C105.569011,4.64543081 106.006734,5.29547988 106.329816,6.0433896 C106.652544,6.79147596 106.814173,7.58195682 106.814173,8.4144789 C106.814173,9.58739352 106.516528,10.6499058 105.921945,11.6014858 C105.326479,12.5537723 104.545007,13.284371 103.575939,13.7943415 L107.29853,22.6925947 L102.887558,22.6925947 L99.4710913,14.5337723 L96.6154681,14.5337723 L96.6154681,22.6925947 L92.5360569,22.6925947 Z" id="Fill-10" fill="#15A18E"></path>
                <path d="M109.592073,22.6925064 L109.592073,2.45884593 L113.638275,2.45884593 L113.638275,19.2209264 L121.054663,19.2228695 L123.85747,22.6925064 L109.592073,22.6925064 Z" id="Fill-12" fill="#C8C9C9"></path>
                <path d="M147.743717,14.5992012 L147.743717,18.6454033 L152.013374,18.6454033 C152.569802,18.6454033 153.04568,18.4479156 153.442422,18.0511737 C153.838281,17.655315 154.036652,17.1787301 154.036652,16.6223023 C154.036652,16.0658744 153.838281,15.5899961 153.442422,15.1934308 C153.04568,14.7975721 152.569802,14.5992012 152.013374,14.5992012 L151.456946,14.5992012 L151.456946,14.5737645 C151.37198,14.5905456 151.296377,14.5992012 151.228899,14.5992012 L151.001558,14.5992012 L147.743717,14.5992012 Z M147.743717,10.5521158 L151.001558,10.5521158 C151.557986,10.5521158 152.033688,10.3546281 152.43043,9.95788616 C152.826289,9.56202748 153.024659,9.08544259 153.024659,8.52901472 C153.024659,7.97258685 152.826289,7.49670854 152.43043,7.10014328 C152.033688,6.70428459 151.557986,6.50591364 151.001558,6.50591364 L147.743717,6.50591364 L147.743717,10.5521158 Z M143.696632,22.6924887 L143.696632,2.45882826 L151.001558,2.45882826 C151.827545,2.45882826 152.611313,2.61939745 153.353747,2.93982924 C154.095474,3.2600844 154.740577,3.69462807 155.288173,4.24222375 C155.835945,4.78999607 156.270312,5.43509912 156.590744,6.1768263 C156.911176,6.91926006 157.071568,7.70302846 157.071568,8.52901472 C157.071568,9.18648283 156.970705,9.81056526 156.767918,10.4003788 C156.566014,10.9908989 156.295749,11.5307223 155.958712,12.0196722 C156.599399,12.5761001 157.113786,13.2545888 157.501696,14.0551384 C157.888899,14.8563945 158.082854,15.7120569 158.082854,16.6223023 C158.082854,17.4657763 157.922991,18.2539607 157.602736,18.9868557 C157.282304,19.720634 156.847937,20.3613209 156.300165,20.9090932 C155.751686,21.4575721 155.107289,21.8919392 154.365739,22.2116644 C153.623305,22.5326261 152.83936,22.6924887 152.013374,22.6924887 L143.696632,22.6924887 Z" id="Fill-14" fill="#C8C9C9"></path>
                <path d="M130.297973,14.5991835 L131.916559,11.3614799 L133.510239,14.5991835 L130.297973,14.5991835 Z M132.04286,2.4588106 L131.790082,2.4588106 L123.516442,19.2228342 L126.301407,22.6924711 L128.299602,18.6455623 L135.50808,18.6455623 L137.505745,22.6924711 L142.033655,22.6924711 L132.04286,2.4588106 Z" id="Fill-16" fill="#C8C9C9"></path>
                <path d="M75.5208813,9.34846516 L68.6112836,9.34846516 L73.9377998,14.0417134 L75.5208813,9.34846516 Z" id="Fill-18" fill="#15A18E"></path>
                <path d="M91.5029912,9.29172718 L85.343423,9.29172718 L86.9263278,13.9846222 L91.5029912,9.29172718 Z" id="Fill-20" fill="#15A18E"></path>
                <path d="M72.0660471,23.9686516 L78.8553503,19.2997802 L74.6531717,16.4319686 L72.0660471,23.9686516 Z" id="Fill-22" fill="#15A18E"></path>
                <g id="Group-26" transform="translate(75.250245, 0.000000)">
                    <mask id="mask-2" fill="white">
                        <use xlink:href="#path-1"></use>
                    </mask>
                    <g id="Clip-25"></g>
                    <path d="M7.10584887,15.6037566 L5.07161923,9.67877134 L3.81444553,13.3400667 L7.10584887,15.6037566 Z M0.0842590775,14.9980451 L5.19597645,0.107328754 L13.466791,24.2001256 L0.0842590775,14.9980451 Z" id="Fill-24" fill="#15A18E" mask="url(#mask-2)"></path>
                </g>
            </g>
        </g>
    </g>
</svg>