<?xml version="1.0" encoding="UTF-8"?>
<svg width="166px" height="22px" viewBox="0 0 166 22" version="1.1" xmlns="http://www.w3.org/2000/svg" xmlns:xlink="http://www.w3.org/1999/xlink">
    <!-- Generator: Sketch 47 (45396) - http://www.bohemiancoding.com/sketch -->
    <title>LOGO</title>
    <desc>Created with Sketch.</desc>
    <defs></defs>
    <g id="Page-1" stroke="none" stroke-width="1" fill="none" fill-rule="evenodd">
        <g id="功能评估-01-copy" transform="translate(-120.000000, -19.000000)" fill="#FEFEFE">
            <g id="nav-bar">
                <path d="M213,36.663499 L207,41 L209.286451,34 L213,36.663499 Z M134.399961,26.512413 L129,33.7715188 L123.600039,26.512413 L123.600039,39 L120,39 L120,21 L123.600039,21 L129,28.2589125 L134.399961,21 L138,21 L138,39 L134.399961,39 L134.399961,26.512413 Z M154.56466,27.3686848 C154.274172,26.6966015 153.880752,26.1123181 153.384402,25.6156379 C152.887855,25.1193514 152.303335,24.7258264 151.631235,24.4354564 C150.958742,24.1454803 150.248461,24 149.5,24 C148.735794,24 148.021971,24.1454803 147.35735,24.4354564 C146.692729,24.7258264 146.111948,25.1193514 145.615598,25.6156379 C145.119051,26.1123181 144.725435,26.6966015 144.435536,27.3686848 C144.145048,28.0411618 144,28.7516331 144,29.4999016 C144,30.2641158 144.145048,30.9781305 144.435536,31.6427331 C144.725435,32.3073358 145.119051,32.8880756 145.615598,33.3843621 C146.111948,33.8808454 146.692729,34.2743705 147.35735,34.5645436 C148.021971,34.8551103 148.735794,35 149.5,35 C150.248461,35 150.958742,34.8551103 151.631235,34.5645436 C152.303335,34.2743705 152.887855,33.8808454 153.384402,33.3843621 C153.880752,32.8880756 154.274172,32.3073358 154.56466,31.6427331 C154.854756,30.9781305 155,30.2641158 155,29.4999016 C155,28.7516331 154.854756,28.0411618 154.56466,27.3686848 L154.56466,27.3686848 Z M155.367649,36.3674942 C154.557636,37.1773473 153.604826,37.8186582 152.509994,38.2910403 C151.414969,38.7636157 150.244971,39 149,39 C147.754836,39 146.584838,38.7636157 145.490006,38.2910403 C144.39498,37.8186582 143.442557,37.1773473 142.632544,36.3674942 C141.82253,35.5574478 141.181205,34.6049523 140.708762,33.5100077 C140.236318,32.4152564 140,31.245125 140,29.9998067 C140,28.7550683 140.236318,27.5849369 140.708762,26.4899923 C141.181205,25.3950477 141.82253,24.4423589 142.632544,23.6325058 C143.442557,22.8222661 144.39498,22.1811485 145.490006,21.7085731 C146.584838,21.2359978 147.754836,21 149,21 C150.244971,21 151.414969,21.2359978 152.509994,21.7085731 C153.604826,22.1811485 154.557636,22.8222661 155.367649,23.6325058 C156.17747,24.4423589 156.818795,25.3950477 157.291238,26.4899923 C157.763875,27.5849369 158,28.7550683 158,29.9998067 C158,31.245125 157.763875,32.4152564 157.291238,33.5100077 C156.818795,34.6049523 156.17747,35.5574478 155.367649,36.3674942 L155.367649,36.3674942 Z M163.777643,27.0974787 L163.777643,39 L160,39 L160,21 L163.659629,21 L173.222155,33.0374324 L173.222155,21 L177,21 L177,39 L173.198633,39 L163.777643,27.0974787 Z M186.070522,27.7836311 C186.666622,28.0461086 187.3094,28.3275277 187.999865,28.6275019 C188.689927,28.9276694 189.332907,29.2949059 189.929411,29.7299845 C190.525309,30.1652564 191.019365,30.6938837 191.411781,31.3162529 C191.80359,31.9386221 192,32.6999613 192,33.599884 C192,34.3351301 191.850672,35.0288205 191.552824,35.6811485 C191.254774,36.3336698 190.850638,36.904046 190.341225,37.3913109 C189.831206,37.878769 189.235308,38.2686195 188.552925,38.5610558 C187.870542,38.8536853 187.144714,39 186.376452,39 L185.599906,39 C184.83124,39 184.109453,38.8536853 183.435153,38.5610558 C182.760651,38.2686195 182.168188,37.878769 181.658775,37.3913109 C181.148756,36.904046 180.744822,36.3375354 180.446974,35.6925522 C180.148924,35.0477622 180,34.3575509 180,33.6224981 L183.764726,33.6224981 L183.764726,33.6675329 C183.780083,34.1476463 183.964773,34.5863972 184.317583,34.9835925 C184.670596,35.3811743 185.089887,35.5951379 185.576466,35.6249034 L186.494056,35.6249034 C186.948911,35.5951379 187.344761,35.4526888 187.682215,35.1975561 C188.019466,34.9426166 188.20355,34.5825316 188.235274,34.1174942 L188.235274,34.0498454 C188.235274,33.5100077 188.038864,33.0712568 187.647055,32.7337858 C187.254841,32.3961215 186.760583,32.0924749 186.164483,31.8224594 C185.568383,31.5524439 184.925201,31.2901598 184.23514,31.0348338 C183.544674,30.7800876 182.901694,30.4574994 182.305796,30.0674555 C181.709494,29.677605 181.215438,29.1938193 180.823426,28.6162916 C180.431213,28.0389571 180.235207,27.2998454 180.235207,26.3997294 C180.235207,25.6652564 180.384131,24.9750451 180.682181,24.3298686 C180.980029,23.6850786 181.380123,23.1148956 181.882262,22.6198995 C182.384198,22.1249034 182.976459,21.7350528 183.658842,21.4499613 C184.341023,21.1652564 185.066447,21.0148827 185.835113,21 L186.094164,21 C186.831307,21.030152 187.529249,21.1950219 188.188193,21.4948029 C188.846934,21.7951636 189.423433,22.1850142 189.917489,22.664741 C190.411545,23.145241 190.803556,23.703827 191.09413,24.3410789 C191.384097,24.9789107 191.529384,25.6575251 191.529384,26.3773087 L187.788098,26.3773087 L187.788098,26.3324671 C187.772337,26.1072932 187.717577,25.8823125 187.623413,25.6575251 C187.529249,25.4323512 187.403563,25.2299845 187.246961,25.0500387 C187.089954,24.8700928 186.909507,24.7202989 186.705823,24.599884 C186.501734,24.480049 186.282289,24.4052487 186.04688,24.3749034 L185.882194,24.3749034 C185.364699,24.3749034 184.92116,24.5138734 184.552992,24.7910403 C184.184016,25.0689803 183.999933,25.4547719 183.999933,25.9497681 C183.999933,26.3401984 184.195938,26.6776694 184.588152,26.9623744 C184.980164,27.2474659 185.47422,27.5215402 186.070522,27.7836311 L186.070522,27.7836311 Z M200.310805,39 L196.596491,39 L196.596491,24.599884 L192,24.599884 L192,21 L205,21 L205,24.599884 L200.310805,24.599884 L200.310805,39 Z M203,28 L209,28 L207.625345,32 L203,28 Z M214.145955,28 L213,31.0897194 L216,33 L214.145955,28 Z M210,32.5972764 L214.583667,19 L222,41 L210,32.5972764 Z M219,28 L224,28 L220.285059,32 L219,28 Z M233.510323,24.5873826 C233.183812,24.1960805 232.791462,24 232.333274,24 L229,24 L229,28 L232.333274,28 C232.791462,28 233.183812,27.804349 233.510323,27.4124027 C233.836476,27.0211007 234,26.5501208 234,25.9998926 C234,25.4498792 233.836476,24.9793289 233.510323,24.5873826 L233.510323,24.5873826 Z M231.565311,31.7864872 L228.862033,31.7864872 L228.862033,38.9774143 L225,38.9774143 L225,21 L232.724066,21 C233.512393,21 234.260505,21.1426564 234.968818,21.4270041 C235.676715,21.7117379 236.292369,22.0976245 236.815363,22.584278 C237.33815,23.0713175 237.752732,23.6442597 238.058486,24.3034908 C238.364032,24.9627219 238.51722,25.6594026 238.51722,26.3931471 C238.51722,27.4270685 238.235305,28.3635047 237.672303,29.2022629 C237.10868,30.041407 236.368859,30.685388 235.451598,31.1347847 L238.97554,38.9774143 L239,39 L234.799668,38.9774143 L231.565311,31.7864872 Z M241,39 L241,21 L244.687291,21 L244.687291,35.9115078 L251.445894,35.9132614 L254,39 L241,39 Z M262.511553,29 L261,32 L264,32 L262.511553,29 Z M265.009022,35.3996493 L258.391266,35.3996493 L256.556965,39 L254,35.9132614 L261.595715,21 L261.827892,21 L271,39 L266.843122,39 L265.009022,35.3996493 Z M281.433383,32.6087144 C281.055291,32.2199032 280.601621,32.0249597 280.071123,32.0249597 L279.540415,32.0249597 L279.540415,32 C279.459411,32.016568 279.387383,32.0249597 279.32308,32.0249597 L279.106162,32.0249597 L276,32.0249597 L276,36 L280.071123,36 C280.601621,36 281.055291,35.8059172 281.433383,35.4162453 C281.811058,35.0274341 282,34.5592254 282,34.0124798 C282,33.4659494 281.811058,32.9983862 281.433383,32.6087144 L281.433383,32.6087144 Z M280.43735,24.5874202 C280.061697,24.1959511 279.611411,24 279.084418,24 L276,24 L276,28 L279.084418,28 C279.611411,28 280.061697,27.8046985 280.43735,27.4125798 C280.812173,27.0211108 281,26.5499621 281,26 C281,25.4498214 280.812173,24.9795388 280.43735,24.5874202 L280.43735,24.5874202 Z M286,33.5998636 C286,34.3502127 285.85556,35.0514608 285.566086,35.703413 C285.276613,36.3561447 284.884052,36.9262619 284.388999,37.413375 C283.893352,37.9014624 283.311041,38.2878406 282.640879,38.5721198 C281.970123,38.857763 281.261773,39 280.515433,39 L273,39 L273,21 L279.60091,21 C280.34725,21 281.0556,21.1428216 281.726553,21.4278802 C282.396715,21.712744 282.97962,22.099317 283.474674,22.586625 C283.969529,23.073933 284.362089,23.6477522 284.651563,24.3074983 C284.941037,24.9680237 285.08607,25.6653749 285.08607,26.4001364 C285.08607,26.984867 284.994856,27.5399812 284.811832,28.0648943 C284.629205,28.5901971 284.385042,29.0702958 284.08053,29.5053853 C284.659478,30.0002923 285.124258,30.6039229 285.474871,31.3160823 C285.824693,32.0288263 286,32.7900867 286,33.5998636 L286,33.5998636 Z" id="LOGO"></path>
            </g>
        </g>
    </g>
</svg>